<svg xmlns="http://www.w3.org/2000/svg"  viewBox="0 0 128 128" width="64px" height="64px"><path fill="#444b54" d="M107.9,64l-6-18.1c-2.2-6.7-3.7-11.8-4.7-16.6C93.5,12.2,80.5,1,64,1C47.4,1,34.4,12.3,30.8,29.8c-0.9,4.5-1.8,8.1-2.9,11.5l-7.3,23.1c-6.3,19.7-6.1,40.5,0.4,60.1c0.5,1.5,1.9,2.5,3.5,2.5H105c1.3,0,2.4-0.8,2.8-2.1C114.4,105.3,114.4,83.7,107.9,64z"/><path fill="#fff" d="M79.9,69c0.4-1.6,2-2.6,3.6-2.2c0.3,0.1,0.6,0.1,1,0.2l0,0C85,67,85.5,67,86,67c6.1,0,11-4.9,11-11s-4.9-11-11-11c-0.3,0-0.6,0-0.9,0c-0.6,0.1-1.1-0.4-1.1-1V23c0-2.5-0.9-4.8-2.4-6.5c-2.3-2.7-6.1-3.8-9.6-3.1l-6,1.2c-1.3,0.3-2.7,0.3-4,0l-6-1.2c-3.5-0.7-7.2,0.4-9.6,3.1c-1.5,1.7-2.4,4-2.4,6.5v21c0,0.6-0.5,1-1.1,1c-0.3,0-0.6,0-0.9,0c-6.1,0-11,4.9-11,11s4.9,11,11,11c0.5,0,1,0,1.5-0.1l0,0c0.3,0,0.6-0.1,1-0.2c1.6-0.4,3.2,0.6,3.6,2.2c0.4,1.6-0.6,3.2-2.2,3.6c-0.1,0-0.2,0-0.2,0l1.4,3.9c4,10.9,6,22.5,6,34.1v0c0,6,4.7,11.2,10.8,11.3c6.2,0.1,11.2-4.8,11.2-11v0c0-11.9,2.1-23.7,6.1-34.9l1.3-3.6c-0.1,0-0.2,0-0.2,0C80.6,72.2,79.6,70.6,79.9,69z"/><path fill="#444b54" d="M61 62L64 58 67 62 64 58z"/><path fill="#444b54" d="M67 65c-.9 0-1.8-.4-2.4-1.2L64 63l-.6.8c-1 1.3-2.9 1.6-4.2.6C58.4 63.8 58 62.9 58 62c0-.6.2-1.3.6-1.8l3-4c.6-.8 1.5-1.2 2.4-1.2s1.8.4 2.4 1.2l3 4c.4.5.6 1.2.6 1.8 0 .9-.4 1.8-1.2 2.4C68.3 64.8 67.6 65 67 65zM42 60c-2.2 0-4-1.8-4-4s1.8-4 4-4c5.8 0 11-7.8 11-14 0-2.2 1.8-4 4-4s4 1.8 4 4C61 48.2 52.7 60 42 60zM86 60c-10.7 0-19-11.8-19-22 0-2.2 1.8-4 4-4s4 1.8 4 4c0 6.2 5.2 14 11 14 2.2 0 4 1.8 4 4S88.2 60 86 60zM70.1 74c-1.5-1.9-3.7-3-6.1-3s-4.6 1.1-6.1 3c-1.4 1.9-2 4.2-1.4 6.5 1.6 8.5 2.5 17.3 2.5 26v4.6c0 2.8 2.2 5 5 5s5-2.2 5-5v-4.6c0-8.7.8-17.4 2.5-26C72 78.2 71.5 75.8 70.1 74z"/></svg>